<svg xmlns="http://www.w3.org/2000/svg" viewBox="0 0 48 48"><defs><filter id="g"><feGaussianBlur stdDeviation="1.5" result="b"></feGaussianBlur><feMerge><feMergeNode in="b"></feMergeNode><feMergeNode in="SourceGraphic"></feMergeNode></feMerge></filter><linearGradient id="fr1" x1="0" y1="0" x2="1" y2="1"><stop offset="0%" stop-color="#a8e8ff"></stop><stop offset="100%" stop-color="#3080e0"></stop></linearGradient><linearGradient id="fr2" x1="0" y1="0" x2="1" y2="1"><stop offset="0%" stop-color="#ffcf9e"></stop><stop offset="100%" stop-color="#e07830"></stop></linearGradient></defs><rect x="6" y="10" width="24" height="24" rx="3" fill="#0e1730" stroke="url(#fr1)" stroke-width="1.6" filter="url(#g)" transform="rotate(-6,18,22)"></rect><circle cx="12" cy="17" r="2.2" fill="#a8e8ff" opacity=".8" transform="rotate(-6,18,22)"></circle><path d="M8 30 L15 22 L20 27 L26 19 L30 24 L30 32 L8 32 Z" fill="#3080e0" opacity=".55" transform="rotate(-6,18,22)"></path><rect x="18" y="14" width="24" height="24" rx="3" fill="#241030" stroke="url(#fr2)" stroke-width="1.6" filter="url(#g)" transform="rotate(6,30,26)"></rect><circle cx="24" cy="21" r="2.2" fill="#ffcf9e" opacity=".85" transform="rotate(6,30,26)"></circle><path d="M20 34 L27 26 L32 31 L38 23 L42 28 L42 36 L20 36 Z" fill="#e07830" opacity=".55" transform="rotate(6,30,26)"></path></svg>
