<svg xmlns="http://www.w3.org/2000/svg" viewBox="0 0 48 48"><defs><filter id="g"><feGaussianBlur stdDeviation="2" result="b"></feGaussianBlur><feMerge><feMergeNode in="b"></feMergeNode><feMergeNode in="SourceGraphic"></feMergeNode></feMerge></filter><linearGradient id="gm" x1="0" y1="0" x2="1" y2="1"><stop offset="0%" stop-color="#d0a8ff"></stop><stop offset="100%" stop-color="#8030f0"></stop></linearGradient></defs><g filter="url(#g)" opacity=".45"><ellipse cx="24" cy="34" rx="14" ry="5" fill="none" stroke="#b58cff" stroke-width="1.2"></ellipse><ellipse cx="24" cy="30" rx="10" ry="3.5" fill="none" stroke="#b58cff" stroke-width="1"></ellipse></g><polygon points="24,8 30,18 38,20 31,27 33,36 24,31 15,36 17,27 10,20 18,18" fill="url(#gm)" filter="url(#g)"></polygon><polygon points="24,8 30,18 38,20 31,27 33,36 24,31 15,36 17,27 10,20 18,18" fill="none" stroke="#e0c0ff" stroke-width=".8" opacity=".6"></polygon><line x1="24" y1="11" x2="24" y2="16" stroke="white" stroke-width="1.2" stroke-linecap="round" opacity=".6"></line><line x1="20" y1="14" x2="23" y2="17" stroke="white" stroke-width="1.2" stroke-linecap="round" opacity=".4"></line></svg>
